<svg width="23" height="27" viewBox="0 0 23 27" fill="none" xmlns="http://www.w3.org/2000/svg">
<g clip-path="url(#clip0)">
<path d="M21.3571 2.21484H1.63772C0.734152 2.21484 0 2.95926 0 3.8731V23.5566C0 24.4704 0.734152 25.2148 1.63772 25.2148H21.3571C22.2607 25.2148 23 24.4704 23 23.5566V3.8731C23 2.95926 22.2607 2.21484 21.3571 2.21484ZM6.95134 21.9291H3.54241V10.9528H6.95647V21.9291H6.95134ZM5.24688 9.45368C4.15335 9.45368 3.27031 8.56551 3.27031 7.47712C3.27031 6.38873 4.15335 5.50056 5.24688 5.50056C6.33527 5.50056 7.22344 6.38873 7.22344 7.47712C7.22344 8.57065 6.3404 9.45368 5.24688 9.45368V9.45368ZM19.7297 21.9291H16.3208V16.5898C16.3208 15.3166 16.2951 13.6789 14.5496 13.6789C12.7732 13.6789 12.5011 15.0651 12.5011 16.4974V21.9291H9.09219V10.9528H12.3625V12.4519H12.4087C12.8656 11.5894 13.9797 10.6807 15.6379 10.6807C19.0879 10.6807 19.7297 12.955 19.7297 15.9122V21.9291V21.9291Z" fill="black"/>
</g>
<defs>
<clipPath id="clip0">
<rect width="23" height="26.2857" fill="white" transform="translate(0 0.572266)"/>
</clipPath>
</defs>
</svg>
