<svg width="189" height="35" viewBox="0 0 189 35" fill="none" xmlns="http://www.w3.org/2000/svg">
<g filter="url(#filter0_d)">
<path d="M135.924 0H169.676L161.539 6.61171L169.676 13.2234H135.924V0Z" fill="#B1E1A3"/>
</g>
<g filter="url(#filter1_d)">
<path d="M144.167 9.06738H177.92L169.783 15.6792L177.92 22.2909H144.167V9.06738Z" fill="#E92831"/>
</g>
<g filter="url(#filter2_d)">
<path d="M153.248 18.1348H187L178.864 24.7464L187 31.3581H153.248V18.1348Z" fill="#809CB7"/>
</g>
<path d="M7.26784 31.7661C4.91776 31.7661 3.11894 31.1423 1.87136 29.8948C0.623787 28.6472 0 26.8844 0 24.6062V9.63549C0 7.35734 0.623787 5.59448 1.87136 4.34693C3.11894 3.09937 4.91776 2.47559 7.26784 2.47559C9.61793 2.47559 11.4168 3.09937 12.6643 4.34693C13.9119 5.59448 14.5357 7.35734 14.5357 9.63549V24.6062C14.5357 26.8844 13.9119 28.6472 12.6643 29.8948C11.4168 31.1423 9.61793 31.7661 7.26784 31.7661ZM7.26784 27.698C8.92161 27.698 9.74849 26.7623 9.74849 24.891V9.35072C9.74849 7.47938 8.92161 6.54372 7.26784 6.54372C5.61408 6.54372 4.7872 7.47938 4.7872 9.35072V24.891C4.7872 26.7623 5.61408 27.698 7.26784 27.698ZM17.7732 2.8824H24.8234C27.2025 2.8824 28.9868 3.47906 30.1764 4.67238C31.3659 5.86569 31.9607 7.61499 31.9607 9.92026V12.7273C31.9607 15.0325 31.3659 16.7818 30.1764 17.9752C28.9868 19.1685 27.2025 19.7651 24.8234 19.7651H22.5604V31.3593H17.7732V2.8824ZM24.8234 15.697C25.6068 15.697 26.187 15.4936 26.5642 15.0868C26.9704 14.68 27.1735 13.9884 27.1735 13.012V9.63549C27.1735 8.65914 26.9704 7.96756 26.5642 7.56075C26.187 7.15393 25.6068 6.95053 24.8234 6.95053H22.5604V15.697H24.8234ZM34.5607 2.8824H47.6168V6.95053H39.3479V14.4766H45.9195V18.5447H39.3479V27.2912H47.6168V31.3593H34.5607V2.8824ZM50.3708 2.8824H56.3766L61.0332 19.9279H61.1203V2.8824H65.3852V31.3593H60.4674L54.7228 10.5712H54.6358V31.3593H50.3708V2.8824ZM75.9134 2.8824H83.1377C85.6039 2.8824 87.4027 3.42482 88.5342 4.50965C89.6658 5.56736 90.2315 7.20818 90.2315 9.43209V10.5712C90.2315 12.0357 89.9704 13.229 89.4482 14.1511C88.9549 15.0732 88.1861 15.7377 87.1416 16.1445V16.2259C89.5207 16.9852 90.7102 18.9651 90.7102 22.1653V24.6062C90.7102 26.803 90.0864 28.4845 88.8389 29.6507C87.6203 30.7898 85.8215 31.3593 83.4424 31.3593H75.9134V2.8824ZM82.572 14.4766C83.5294 14.4766 84.2403 14.246 84.7045 13.785C85.1977 13.3239 85.4443 12.551 85.4443 11.4662V9.87958C85.4443 8.84899 85.2412 8.10316 84.835 7.64211C84.4579 7.18106 83.8486 6.95053 83.0072 6.95053H80.7006V14.4766H82.572ZM83.4424 27.2912C84.2838 27.2912 84.9076 27.0878 85.3133 26.681C85.7199 26.247 85.923 25.5148 85.923 24.4842V22.0026C85.923 20.7008 85.6764 19.8058 85.1832 19.3176C84.719 18.8023 83.9356 18.5447 82.8331 18.5447H80.7006V27.2912H83.4424ZM100.428 31.7661C98.0778 31.7661 96.279 31.1423 95.0314 29.8948C93.7838 28.6472 93.16 26.8844 93.16 24.6062V9.63549C93.16 7.35734 93.7838 5.59448 95.0314 4.34693C96.279 3.09937 98.0778 2.47559 100.428 2.47559C102.778 2.47559 104.577 3.09937 105.824 4.34693C107.072 5.59448 107.696 7.35734 107.696 9.63549V24.6062C107.696 26.8844 107.072 28.6472 105.824 29.8948C104.577 31.1423 102.778 31.7661 100.428 31.7661ZM100.428 27.698C102.082 27.698 102.909 26.7623 102.909 24.891V9.35072C102.909 7.47938 102.082 6.54372 100.428 6.54372C98.7741 6.54372 97.9473 7.47938 97.9473 9.35072V24.891C97.9473 26.7623 98.7741 27.698 100.428 27.698ZM117.853 31.7661C115.503 31.7661 113.704 31.1423 112.457 29.8948C111.209 28.6472 110.585 26.8844 110.585 24.6062V9.63549C110.585 7.35734 111.209 5.59448 112.457 4.34693C113.704 3.09937 115.503 2.47559 117.853 2.47559C120.203 2.47559 122.002 3.09937 123.25 4.34693C124.497 5.59448 125.121 7.35734 125.121 9.63549V24.6062C125.121 26.8844 124.497 28.6472 123.25 29.8948C122.002 31.1423 120.203 31.7661 117.853 31.7661ZM117.853 27.698C119.507 27.698 120.333 26.7623 120.333 24.891V9.35072C120.333 7.47938 119.507 6.54372 117.853 6.54372C116.199 6.54372 115.372 7.47938 115.372 9.35072V24.891C115.372 26.7623 116.199 27.698 117.853 27.698ZM128.358 2.8824H133.145V14.8834L139.238 2.8824H144.025L138.324 13.3375L144.112 31.3593H139.108L135.06 18.6667L133.145 22.2874V31.3593H128.358V2.8824Z" fill="#111010"/>
<defs>
<filter id="filter0_d" x="134.11" y="0" width="37.3787" height="16.8501" filterUnits="userSpaceOnUse" color-interpolation-filters="sRGB">
<feFlood flood-opacity="0" result="BackgroundImageFix"/>
<feColorMatrix in="SourceAlpha" type="matrix" values="0 0 0 0 0 0 0 0 0 0 0 0 0 0 0 0 0 0 127 0"/>
<feOffset dy="1.81333"/>
<feGaussianBlur stdDeviation="0.906667"/>
<feColorMatrix type="matrix" values="0 0 0 0 0 0 0 0 0 0 0 0 0 0 0 0 0 0 0.25 0"/>
<feBlend mode="normal" in2="BackgroundImageFix" result="effect1_dropShadow"/>
<feBlend mode="normal" in="SourceGraphic" in2="effect1_dropShadow" result="shape"/>
</filter>
<filter id="filter1_d" x="142.354" y="9.06738" width="37.3787" height="16.8502" filterUnits="userSpaceOnUse" color-interpolation-filters="sRGB">
<feFlood flood-opacity="0" result="BackgroundImageFix"/>
<feColorMatrix in="SourceAlpha" type="matrix" values="0 0 0 0 0 0 0 0 0 0 0 0 0 0 0 0 0 0 127 0"/>
<feOffset dy="1.81333"/>
<feGaussianBlur stdDeviation="0.906667"/>
<feColorMatrix type="matrix" values="0 0 0 0 0 0 0 0 0 0 0 0 0 0 0 0 0 0 0.25 0"/>
<feBlend mode="normal" in2="BackgroundImageFix" result="effect1_dropShadow"/>
<feBlend mode="normal" in="SourceGraphic" in2="effect1_dropShadow" result="shape"/>
</filter>
<filter id="filter2_d" x="151.435" y="18.1348" width="37.3787" height="16.85" filterUnits="userSpaceOnUse" color-interpolation-filters="sRGB">
<feFlood flood-opacity="0" result="BackgroundImageFix"/>
<feColorMatrix in="SourceAlpha" type="matrix" values="0 0 0 0 0 0 0 0 0 0 0 0 0 0 0 0 0 0 127 0"/>
<feOffset dy="1.81333"/>
<feGaussianBlur stdDeviation="0.906667"/>
<feColorMatrix type="matrix" values="0 0 0 0 0 0 0 0 0 0 0 0 0 0 0 0 0 0 0.25 0"/>
<feBlend mode="normal" in2="BackgroundImageFix" result="effect1_dropShadow"/>
<feBlend mode="normal" in="SourceGraphic" in2="effect1_dropShadow" result="shape"/>
</filter>
</defs>
</svg>
