<svg width="448" height="213" viewBox="0 0 448 213" fill="none" xmlns="http://www.w3.org/2000/svg">
<path d="M12.9141 105.117C12.9141 130.794 17.1432 150.807 25.6016 165.156C34.0599 179.505 48.711 186.68 69.5547 186.68C90.3985 186.68 105.05 179.505 113.508 165.156C122.117 150.807 126.422 130.794 126.422 105.117C126.422 79.7422 122.117 59.8802 113.508 45.5312C105.05 31.1822 90.3985 24.0078 69.5547 24.0078C48.711 24.0078 34.0599 31.1822 25.6016 45.5312C17.1432 59.7291 12.9141 79.5911 12.9141 105.117ZM106.031 105.117C106.031 118.258 105.05 129.284 103.086 138.195C101.273 146.956 97.724 153.979 92.4375 159.266C87.1511 164.552 79.5235 167.195 69.5547 167.195C59.737 167.195 52.1849 164.552 46.8985 159.266C41.612 153.979 37.987 146.956 36.0234 138.195C34.2109 129.284 33.3047 118.258 33.3047 105.117C33.3047 92.1276 34.2109 81.2526 36.0234 72.4921C37.987 63.7317 41.612 56.7838 46.8985 51.6484C52.1849 46.3619 59.737 43.7187 69.5547 43.7187C79.5235 43.7187 87.1511 46.3619 92.4375 51.6484C97.724 56.7838 101.273 63.7317 103.086 72.4921C105.05 81.2526 106.031 92.1276 106.031 105.117ZM259.699 42.5859H177.683V96.0547C181.459 90.9192 186.897 86.8411 193.996 83.8203C201.095 80.7994 208.874 79.289 217.332 79.289C228.66 79.289 238.025 81.7057 245.426 86.539C252.978 91.2213 258.491 97.4896 261.965 105.344C265.59 113.047 267.402 121.656 267.402 131.172C267.402 147.635 262.795 161.078 253.582 171.5C244.368 181.922 230.85 187.133 213.027 187.133C197.017 187.133 183.952 182.828 173.832 174.219C163.712 165.458 158.048 153.753 156.84 139.102H177.23C178.892 148.466 182.743 155.792 188.785 161.078C194.978 166.214 202.756 168.781 212.121 168.781C223.751 168.781 232.512 165.307 238.402 158.359C244.293 151.411 247.238 142.273 247.238 130.945C247.238 119.919 244.217 111.31 238.176 105.117C232.134 98.9244 223.6 95.8281 212.574 95.8281C204.72 95.8281 197.848 97.5651 191.957 101.039C186.066 104.362 181.611 108.893 178.59 114.633H158.652V24.2343H259.699V42.5859Z" fill="#A6544A"/>
<path d="M149.543 125L145.288 117.575H144.204V125H139.448V105.338H147.569C149.126 105.338 150.443 105.607 151.518 106.145C152.593 106.682 153.4 107.424 153.937 108.37C154.475 109.297 154.744 110.363 154.744 111.568C154.744 112.995 154.345 114.21 153.548 115.211C152.769 116.212 151.629 116.898 150.127 117.269L154.8 125H149.543ZM144.204 114.321H147.152C148.097 114.321 148.793 114.117 149.237 113.709C149.682 113.283 149.905 112.662 149.905 111.846C149.905 111.067 149.673 110.455 149.21 110.01C148.765 109.565 148.079 109.343 147.152 109.343H144.204V114.321ZM162.718 109.12V113.236H169.365V116.824H162.718V121.19H170.199V125H157.963V105.338H170.199V109.12H162.718ZM186.555 105.338V109.12H178.49V113.431H184.719V117.046H178.49V125H173.734V105.338H186.555ZM194.587 121.357H200.928V125H189.831V105.338H194.587V121.357ZM208.702 109.12V113.236H215.348V116.824H208.702V121.19H216.183V125H203.946V105.338H216.183V109.12H208.702ZM228.7 105.144C231.203 105.144 233.27 105.802 234.902 107.118C236.552 108.434 237.618 110.214 238.1 112.458H233.066C232.696 111.549 232.121 110.835 231.342 110.316C230.582 109.797 229.673 109.538 228.617 109.538C227.226 109.538 226.105 110.047 225.252 111.067C224.399 112.087 223.972 113.45 223.972 115.155C223.972 116.861 224.399 118.224 225.252 119.243C226.105 120.244 227.226 120.745 228.617 120.745C229.673 120.745 230.582 120.485 231.342 119.966C232.121 119.447 232.696 118.743 233.066 117.853H238.1C237.618 120.078 236.552 121.857 234.902 123.192C233.27 124.509 231.203 125.167 228.7 125.167C226.791 125.167 225.113 124.75 223.667 123.915C222.22 123.063 221.099 121.876 220.301 120.356C219.523 118.835 219.133 117.102 219.133 115.155C219.133 113.209 219.523 111.475 220.301 109.955C221.099 108.434 222.22 107.257 223.667 106.423C225.113 105.57 226.791 105.144 228.7 105.144ZM255.727 105.338V109.12H250.387V125H245.604V109.12H240.32V105.338H255.727ZM263.321 105.338V125H258.566V105.338H263.321ZM276.783 105.032C278.637 105.032 280.315 105.468 281.817 106.339C283.337 107.192 284.533 108.388 285.404 109.927C286.276 111.447 286.711 113.171 286.711 115.1C286.711 117.028 286.266 118.761 285.377 120.3C284.505 121.839 283.309 123.044 281.789 123.915C280.287 124.768 278.619 125.195 276.783 125.195C274.948 125.195 273.27 124.768 271.75 123.915C270.248 123.044 269.052 121.839 268.162 120.3C267.291 118.761 266.855 117.028 266.855 115.1C266.855 113.171 267.291 111.447 268.162 109.927C269.052 108.388 270.248 107.192 271.75 106.339C273.27 105.468 274.948 105.032 276.783 105.032ZM276.783 109.454C275.226 109.454 273.984 109.964 273.057 110.984C272.148 111.985 271.694 113.357 271.694 115.1C271.694 116.824 272.148 118.196 273.057 119.215C273.984 120.235 275.226 120.745 276.783 120.745C278.322 120.745 279.555 120.235 280.482 119.215C281.409 118.196 281.872 116.824 281.872 115.1C281.872 113.375 281.409 112.003 280.482 110.984C279.573 109.964 278.341 109.454 276.783 109.454ZM307.682 125H302.926L294.973 112.93V125H290.217V105.338H294.973L302.926 117.519V105.338H307.682V125Z" fill="white"/>
</svg>
