<svg width="448" height="213" viewBox="0 0 448 213" fill="none" xmlns="http://www.w3.org/2000/svg">
<path d="M12.9141 105.117C12.9141 130.794 17.1432 150.807 25.6016 165.156C34.0599 179.505 48.711 186.68 69.5547 186.68C90.3985 186.68 105.05 179.505 113.508 165.156C122.117 150.807 126.422 130.794 126.422 105.117C126.422 79.7422 122.117 59.8802 113.508 45.5312C105.05 31.1822 90.3985 24.0078 69.5547 24.0078C48.711 24.0078 34.0599 31.1822 25.6016 45.5312C17.1432 59.7291 12.9141 79.5911 12.9141 105.117ZM106.031 105.117C106.031 118.258 105.05 129.284 103.086 138.195C101.273 146.956 97.724 153.979 92.4375 159.266C87.1511 164.552 79.5235 167.195 69.5547 167.195C59.737 167.195 52.1849 164.552 46.8985 159.266C41.612 153.979 37.987 146.956 36.0234 138.195C34.2109 129.284 33.3047 118.258 33.3047 105.117C33.3047 92.1276 34.2109 81.2526 36.0234 72.4921C37.987 63.7317 41.612 56.7838 46.8985 51.6484C52.1849 46.3619 59.737 43.7187 69.5547 43.7187C79.5235 43.7187 87.1511 46.3619 92.4375 51.6484C97.724 56.7838 101.273 63.7317 103.086 72.4921C105.05 81.2526 106.031 92.1276 106.031 105.117ZM146.191 149.297V132.078L228.207 25.1406H250.41V131.398H273.973V149.297H250.41V186H229.566V149.297H146.191ZM230.926 50.289L167.941 131.398H230.926V50.289Z" fill="#A6544A"/>
<path d="M121.065 105.338L125.876 120.133L130.687 105.338H135.776L128.935 125H122.789L115.975 105.338H121.065ZM143.189 105.338V125H138.434V105.338H143.189ZM161.434 119.466C161.434 120.504 161.166 121.459 160.628 122.33C160.109 123.202 159.33 123.897 158.292 124.416C157.272 124.935 156.03 125.195 154.565 125.195C152.359 125.195 150.542 124.657 149.115 123.582C147.687 122.506 146.908 121.005 146.778 119.076H151.84C151.914 119.818 152.174 120.402 152.619 120.828C153.082 121.255 153.666 121.468 154.371 121.468C154.982 121.468 155.464 121.301 155.817 120.968C156.169 120.634 156.345 120.189 156.345 119.633C156.345 119.132 156.178 118.715 155.845 118.381C155.529 118.047 155.131 117.779 154.649 117.575C154.167 117.352 153.499 117.093 152.646 116.796C151.404 116.37 150.385 115.962 149.587 115.572C148.809 115.164 148.132 114.571 147.557 113.793C147.001 112.995 146.723 111.966 146.723 110.706C146.723 109.538 147.019 108.527 147.613 107.674C148.206 106.821 149.022 106.173 150.06 105.728C151.117 105.264 152.322 105.032 153.675 105.032C155.863 105.032 157.597 105.551 158.876 106.59C160.174 107.628 160.906 109.056 161.073 110.872H155.928C155.835 110.224 155.594 109.714 155.205 109.343C154.834 108.954 154.324 108.759 153.675 108.759C153.119 108.759 152.665 108.907 152.313 109.204C151.979 109.5 151.812 109.936 151.812 110.511C151.812 110.974 151.96 111.373 152.257 111.707C152.572 112.022 152.962 112.282 153.425 112.485C153.889 112.689 154.556 112.949 155.427 113.264C156.688 113.691 157.717 114.117 158.514 114.543C159.312 114.951 159.998 115.554 160.572 116.351C161.147 117.148 161.434 118.187 161.434 119.466ZM169.514 105.338V116.685C169.514 117.983 169.802 118.974 170.376 119.66C170.97 120.346 171.823 120.689 172.935 120.689C174.047 120.689 174.891 120.346 175.466 119.66C176.059 118.974 176.356 117.983 176.356 116.685V105.338H181.111V116.685C181.111 118.539 180.75 120.105 180.027 121.385C179.303 122.645 178.312 123.6 177.051 124.249C175.809 124.879 174.4 125.195 172.824 125.195C171.248 125.195 169.857 124.879 168.652 124.249C167.447 123.619 166.502 122.664 165.816 121.385C165.13 120.105 164.787 118.539 164.787 116.685V105.338H169.514ZM197.304 121.412H189.934L188.711 125H183.705L190.908 105.477H196.386L203.589 125H198.528L197.304 121.412ZM196.08 117.797L193.633 110.567L191.158 117.797H196.08ZM211.027 121.357H217.368V125H206.272V105.338H211.027V121.357ZM244.476 115.127C244.476 117.056 244.059 118.771 243.224 120.272C242.408 121.755 241.222 122.914 239.665 123.749C238.126 124.583 236.309 125 234.214 125H226.788V105.338H234.214C236.327 105.338 238.153 105.746 239.692 106.562C241.231 107.378 242.408 108.527 243.224 110.01C244.059 111.494 244.476 113.199 244.476 115.127ZM233.797 120.745C235.651 120.745 237.087 120.254 238.107 119.271C239.145 118.288 239.665 116.907 239.665 115.127C239.665 113.348 239.145 111.966 238.107 110.984C237.087 110.001 235.651 109.51 233.797 109.51H231.544V120.745H233.797ZM252.774 109.12V113.236H259.421V116.824H252.774V121.19H260.255V125H248.019V105.338H260.255V109.12H252.774ZM277.918 119.466C277.918 120.504 277.649 121.459 277.111 122.33C276.592 123.202 275.813 123.897 274.775 124.416C273.755 124.935 272.513 125.195 271.048 125.195C268.842 125.195 267.025 124.657 265.598 123.582C264.17 122.506 263.391 121.005 263.262 119.076H268.323C268.397 119.818 268.657 120.402 269.102 120.828C269.565 121.255 270.149 121.468 270.854 121.468C271.466 121.468 271.948 121.301 272.3 120.968C272.652 120.634 272.828 120.189 272.828 119.633C272.828 119.132 272.661 118.715 272.328 118.381C272.013 118.047 271.614 117.779 271.132 117.575C270.65 117.352 269.982 117.093 269.13 116.796C267.887 116.37 266.868 115.962 266.07 115.572C265.292 115.164 264.615 114.571 264.04 113.793C263.484 112.995 263.206 111.966 263.206 110.706C263.206 109.538 263.503 108.527 264.096 107.674C264.689 106.821 265.505 106.173 266.543 105.728C267.6 105.264 268.805 105.032 270.159 105.032C272.346 105.032 274.08 105.551 275.359 106.59C276.657 107.628 277.389 109.056 277.556 110.872H272.411C272.318 110.224 272.077 109.714 271.688 109.343C271.317 108.954 270.807 108.759 270.159 108.759C269.602 108.759 269.148 108.907 268.796 109.204C268.462 109.5 268.295 109.936 268.295 110.511C268.295 110.974 268.444 111.373 268.74 111.707C269.055 112.022 269.445 112.282 269.908 112.485C270.372 112.689 271.039 112.949 271.911 113.264C273.171 113.691 274.2 114.117 274.997 114.543C275.795 114.951 276.481 115.554 277.055 116.351C277.63 117.148 277.918 118.187 277.918 119.466ZM286.137 105.338V125H281.381V105.338H286.137ZM299.459 105.144C301.925 105.144 303.955 105.746 305.55 106.951C307.144 108.156 308.136 109.788 308.525 111.846H303.492C303.158 111.141 302.648 110.585 301.962 110.177C301.276 109.751 300.451 109.538 299.487 109.538C297.985 109.538 296.78 110.047 295.872 111.067C294.963 112.068 294.509 113.431 294.509 115.155C294.509 117.028 294.982 118.465 295.927 119.466C296.892 120.467 298.254 120.968 300.016 120.968C301.146 120.968 302.138 120.662 302.991 120.05C303.844 119.419 304.447 118.53 304.799 117.38H298.792V113.959H308.776V118.659C308.405 119.809 307.812 120.875 306.996 121.857C306.18 122.84 305.133 123.637 303.853 124.249C302.593 124.861 301.146 125.167 299.515 125.167C297.531 125.167 295.798 124.75 294.314 123.915C292.831 123.063 291.682 121.876 290.866 120.356C290.069 118.835 289.67 117.102 289.67 115.155C289.67 113.209 290.069 111.475 290.866 109.955C291.682 108.434 292.822 107.257 294.287 106.423C295.77 105.57 297.494 105.144 299.459 105.144ZM329.737 125H324.981L317.027 112.93V125H312.272V105.338H317.027L324.981 117.519V105.338H329.737V125Z" fill="white"/>
</svg>
