<svg width="445" height="169" viewBox="0 0 445 169" fill="none" xmlns="http://www.w3.org/2000/svg">
<path d="M31.9141 83.1172C31.9141 108.794 36.1432 128.807 44.6016 143.156C53.0599 157.505 67.711 164.68 88.5547 164.68C109.398 164.68 124.05 157.505 132.508 143.156C141.117 128.807 145.422 108.794 145.422 83.1172C145.422 57.7422 141.117 37.8802 132.508 23.5312C124.05 9.18224 109.398 2.00776 88.5547 2.00776C67.711 2.00776 53.0599 9.18224 44.6016 23.5312C36.1432 37.7291 31.9141 57.5911 31.9141 83.1172ZM125.031 83.1172C125.031 96.2578 124.05 107.284 122.086 116.195C120.273 124.956 116.724 131.979 111.438 137.266C106.151 142.552 98.5235 145.195 88.5547 145.195C78.737 145.195 71.1849 142.552 65.8985 137.266C60.612 131.979 56.987 124.956 55.0234 116.195C53.2109 107.284 52.3047 96.2578 52.3047 83.1172C52.3047 70.1276 53.2109 59.2526 55.0234 50.4921C56.987 41.7317 60.612 34.7838 65.8985 29.6484C71.1849 24.3619 78.737 21.7187 88.5547 21.7187C98.5235 21.7187 106.151 24.3619 111.438 29.6484C116.724 34.7838 120.273 41.7317 122.086 50.4921C124.05 59.2526 125.031 70.1276 125.031 83.1172ZM161.113 23.5312V4.27338H206.879V164H185.129V23.5312H161.113Z" fill="#A6544A"/>
<path d="M143.175 57.1274C143.175 59.0556 142.758 60.7705 141.924 62.2723C141.108 63.7555 139.921 64.9142 138.364 65.7485C136.825 66.5828 135.008 67 132.913 67H125.488V47.3382H132.913C135.027 47.3382 136.853 47.7461 138.392 48.5619C139.931 49.3776 141.108 50.5271 141.924 52.0103C142.758 53.4935 143.175 55.1992 143.175 57.1274ZM132.496 62.7451C134.35 62.7451 135.787 62.2537 136.807 61.2711C137.845 60.2885 138.364 58.9073 138.364 57.1274C138.364 55.3476 137.845 53.9663 136.807 52.9837C135.787 52.0011 134.35 51.5098 132.496 51.5098H130.243V62.7451H132.496ZM151.474 47.3382V67H146.718V47.3382H151.474ZM169.719 61.4658C169.719 62.504 169.45 63.4588 168.912 64.3302C168.393 65.2016 167.614 65.8969 166.576 66.416C165.556 66.9351 164.314 67.1947 162.85 67.1947C160.643 67.1947 158.826 66.657 157.399 65.5817C155.971 64.5064 155.193 63.0046 155.063 61.0764H160.124C160.198 61.818 160.458 62.4021 160.903 62.8285C161.366 63.2549 161.95 63.4681 162.655 63.4681C163.267 63.4681 163.749 63.3013 164.101 62.9675C164.453 62.6338 164.629 62.1888 164.629 61.6326C164.629 61.1321 164.463 60.7149 164.129 60.3812C163.814 60.0475 163.415 59.7786 162.933 59.5747C162.451 59.3522 161.784 59.0927 160.931 58.796C159.689 58.3696 158.669 57.9617 157.872 57.5724C157.093 57.1645 156.416 56.5712 155.841 55.7925C155.285 54.9953 155.007 53.9663 155.007 52.7056C155.007 51.5376 155.304 50.5271 155.897 49.6743C156.49 48.8214 157.306 48.1725 158.344 47.7276C159.401 47.2641 160.606 47.0323 161.96 47.0323C164.147 47.0323 165.881 47.5514 167.16 48.5897C168.458 49.6279 169.19 51.0555 169.357 52.8725H164.212C164.12 52.2236 163.879 51.7137 163.489 51.3429C163.118 50.9536 162.609 50.7589 161.96 50.7589C161.404 50.7589 160.949 50.9072 160.597 51.2038C160.263 51.5005 160.096 51.9362 160.096 52.5109C160.096 52.9744 160.245 53.373 160.541 53.7068C160.857 54.0219 161.246 54.2815 161.709 54.4854C162.173 54.6894 162.84 54.9489 163.712 55.2641C164.972 55.6905 166.001 56.117 166.799 56.5434C167.596 56.9513 168.282 57.5538 168.857 58.351C169.431 59.1483 169.719 60.1865 169.719 61.4658ZM182.165 47.1436C184.668 47.1436 186.735 47.8017 188.367 49.1181C190.017 50.4344 191.083 52.2143 191.565 54.4576H186.531C186.16 53.5492 185.586 52.8354 184.807 52.3163C184.047 51.7971 183.138 51.5376 182.081 51.5376C180.691 51.5376 179.569 52.0474 178.716 53.0671C177.864 54.0868 177.437 55.4495 177.437 57.1552C177.437 58.8609 177.864 60.2236 178.716 61.2433C179.569 62.2445 180.691 62.7451 182.081 62.7451C183.138 62.7451 184.047 62.4855 184.807 61.9664C185.586 61.4472 186.16 60.7427 186.531 59.8528H191.565C191.083 62.0776 190.017 63.8575 188.367 65.1923C186.735 66.5087 184.668 67.1669 182.165 67.1669C180.255 67.1669 178.577 66.7497 177.131 65.9154C175.685 65.0626 174.563 63.876 173.766 62.3557C172.988 60.8354 172.598 59.1019 172.598 57.1552C172.598 55.2085 172.988 53.475 173.766 51.9547C174.563 50.4344 175.685 49.2571 177.131 48.4228C178.577 47.57 180.255 47.1436 182.165 47.1436ZM204.408 47.0323C206.262 47.0323 207.94 47.468 209.442 48.3394C210.962 49.1922 212.158 50.3881 213.03 51.9269C213.901 53.4472 214.337 55.1714 214.337 57.0996C214.337 59.0278 213.892 60.7613 213.002 62.3001C212.13 63.8389 210.935 65.044 209.414 65.9154C207.912 66.7682 206.244 67.1947 204.408 67.1947C202.573 67.1947 200.895 66.7682 199.375 65.9154C197.873 65.044 196.677 63.8389 195.787 62.3001C194.916 60.7613 194.48 59.0278 194.48 57.0996C194.48 55.1714 194.916 53.4472 195.787 51.9269C196.677 50.3881 197.873 49.1922 199.375 48.3394C200.895 47.468 202.573 47.0323 204.408 47.0323ZM204.408 51.4541C202.851 51.4541 201.609 51.964 200.682 52.9837C199.773 53.9849 199.319 55.3568 199.319 57.0996C199.319 58.8238 199.773 60.1958 200.682 61.2155C201.609 62.2352 202.851 62.7451 204.408 62.7451C205.947 62.7451 207.18 62.2352 208.107 61.2155C209.034 60.1958 209.498 58.8238 209.498 57.0996C209.498 55.3754 209.034 54.0034 208.107 52.9837C207.199 51.964 205.966 51.4541 204.408 51.4541ZM221.513 47.3382L226.325 62.1332L231.136 47.3382H236.225L229.384 67H223.238L216.424 47.3382H221.513ZM243.638 51.1204V55.2363H250.285V58.8238H243.638V63.19H251.119V67H238.883V47.3382H251.119V51.1204H243.638ZM264.749 67L260.494 59.5747H259.409V67H254.654V47.3382H262.774C264.332 47.3382 265.648 47.6071 266.724 48.1447C267.799 48.6824 268.605 49.424 269.143 50.3695C269.681 51.2965 269.949 52.3626 269.949 53.5677C269.949 54.9953 269.551 56.2097 268.754 57.2108C267.975 58.212 266.835 58.898 265.333 59.2688L270.005 67H264.749ZM259.409 56.3209H262.357C263.303 56.3209 263.998 56.117 264.443 55.7091C264.888 55.2827 265.111 54.6616 265.111 53.8458C265.111 53.0671 264.879 52.4553 264.415 52.0103C263.97 51.5654 263.284 51.3429 262.357 51.3429H259.409V56.3209ZM290.16 47.3382L283.347 60.4646V67H278.563V60.4646L271.75 47.3382H277.201L280.983 55.3476L284.765 47.3382H290.16ZM311.906 73.2851C312.815 73.2851 313.51 72.8494 313.992 71.978C314.493 71.1066 314.743 70.0313 314.743 68.752C314.743 67.4728 314.252 66.175 313.269 64.8586C311.86 66.4716 309.923 67.2781 307.457 67.2781C304.991 67.2781 303.026 66.8609 301.561 66.0266C300.115 65.1923 299.392 63.876 299.392 62.0776C299.392 60.8354 299.726 59.8343 300.393 59.0741C301.061 58.314 302.182 57.7578 303.758 57.4055C302.127 55.9223 301.311 54.3093 301.311 52.5665C301.311 50.8052 301.923 49.4796 303.146 48.5897C304.388 47.6812 305.927 47.227 307.763 47.227C309.598 47.227 310.97 47.5607 311.879 48.2282C312.806 48.8956 313.269 49.7948 313.269 50.9257C313.269 52.891 311.777 54.3927 308.792 55.431C309.163 55.672 309.839 56.0984 310.822 56.7103C312.88 58.0451 314.335 59.1205 315.188 59.9362C315.466 58.6199 315.624 57.2665 315.661 55.8759H313.464V55.3197H318.303V55.8759H316.356C316.319 57.6187 316.143 59.1854 315.828 60.5759C316.625 61.4658 317.227 62.3186 317.635 63.1344C318.043 63.9502 318.247 64.9791 318.247 66.2213C318.247 68.2236 317.543 70.0128 316.134 71.5887C314.725 73.1646 313.121 73.9525 311.322 73.9525C310.117 73.9525 309.181 73.7022 308.514 73.2017C307.846 72.7011 307.512 72.0614 307.512 71.2828C307.512 70.5041 307.726 69.8923 308.152 69.4473C308.597 69.0209 309.153 68.8077 309.821 68.8077C311.304 68.8077 312.046 69.4751 312.046 70.81C312.046 71.0881 311.99 71.4218 311.879 71.8112H310.905C310.572 72.7938 310.905 73.2851 311.906 73.2851ZM308.124 66.555C310.09 66.555 311.647 65.7949 312.796 64.2746C311.944 63.3847 310.748 62.4206 309.209 61.3824C306.558 59.6396 304.871 58.453 304.147 57.8227C303.869 58.4159 303.73 59.621 303.73 61.438C303.73 63.2549 304.092 64.562 304.815 65.3592C305.538 66.1564 306.641 66.555 308.124 66.555ZM307.624 47.811C306.919 47.811 306.317 48.0335 305.816 48.4785C305.315 48.9049 305.065 49.5909 305.065 50.5364C305.065 51.4819 305.288 52.2606 305.733 52.8725C306.178 53.4843 307.03 54.2259 308.291 55.0973C309.07 54.6894 309.552 54.1981 309.737 53.6233C309.941 53.0486 310.043 52.205 310.043 51.0926C310.043 48.9049 309.237 47.811 307.624 47.811ZM159.576 109L155.321 101.575H154.236V109H149.481V89.3382H157.601C159.158 89.3382 160.475 89.6071 161.55 90.1447C162.625 90.6824 163.432 91.424 163.97 92.3695C164.507 93.2965 164.776 94.3626 164.776 95.5677C164.776 96.9953 164.378 98.2097 163.58 99.2108C162.802 100.212 161.661 100.898 160.16 101.269L164.832 109H159.576ZM154.236 98.3209H157.184C158.13 98.3209 158.825 98.117 159.27 97.7091C159.715 97.2827 159.937 96.6616 159.937 95.8458C159.937 95.0671 159.705 94.4553 159.242 94.0103C158.797 93.5654 158.111 93.3429 157.184 93.3429H154.236V98.3209ZM172.75 93.1204V97.2363H179.397V100.824H172.75V105.19H180.231V109H167.995V89.3382H180.231V93.1204H172.75ZM197.894 103.466C197.894 104.504 197.625 105.459 197.087 106.33C196.568 107.202 195.79 107.897 194.751 108.416C193.732 108.935 192.489 109.195 191.025 109.195C188.819 109.195 187.002 108.657 185.574 107.582C184.146 106.506 183.368 105.005 183.238 103.076H188.299C188.374 103.818 188.633 104.402 189.078 104.828C189.542 105.255 190.126 105.468 190.83 105.468C191.442 105.468 191.924 105.301 192.276 104.968C192.628 104.634 192.805 104.189 192.805 103.633C192.805 103.132 192.638 102.715 192.304 102.381C191.989 102.047 191.59 101.779 191.108 101.575C190.626 101.352 189.959 101.093 189.106 100.796C187.864 100.37 186.844 99.9617 186.047 99.5724C185.268 99.1645 184.591 98.5712 184.017 97.7925C183.46 96.9953 183.182 95.9663 183.182 94.7056C183.182 93.5376 183.479 92.5271 184.072 91.6743C184.666 90.8214 185.481 90.1725 186.52 89.7276C187.576 89.2641 188.781 89.0323 190.135 89.0323C192.323 89.0323 194.056 89.5514 195.335 90.5897C196.633 91.6279 197.365 93.0555 197.532 94.8725H192.387C192.295 94.2236 192.054 93.7137 191.664 93.3429C191.294 92.9536 190.784 92.7589 190.135 92.7589C189.579 92.7589 189.124 92.9072 188.772 93.2038C188.438 93.5005 188.272 93.9362 188.272 94.5109C188.272 94.9744 188.42 95.373 188.717 95.7068C189.032 96.0219 189.421 96.2815 189.885 96.4854C190.348 96.6894 191.016 96.9489 191.887 97.2641C193.148 97.6905 194.177 98.117 194.974 98.5434C195.771 98.9513 196.457 99.5538 197.032 100.351C197.607 101.148 197.894 102.187 197.894 103.466ZM206.113 93.1204V97.2363H212.759V100.824H206.113V105.19H213.594V109H201.357V89.3382H213.594V93.1204H206.113ZM229.31 105.412H221.94L220.716 109H215.71L222.913 89.4773H228.392L235.595 109H230.533L229.31 105.412ZM228.086 101.797L225.639 94.5665L223.164 101.797H228.086ZM248.373 109L244.118 101.575H243.033V109H238.277V89.3382H246.398C247.955 89.3382 249.272 89.6071 250.347 90.1447C251.422 90.6824 252.229 91.424 252.767 92.3695C253.304 93.2965 253.573 94.3626 253.573 95.5677C253.573 96.9953 253.174 98.2097 252.377 99.2108C251.598 100.212 250.458 100.898 248.957 101.269L253.629 109H248.373ZM243.033 98.3209H245.981C246.926 98.3209 247.622 98.117 248.067 97.7091C248.512 97.2827 248.734 96.6616 248.734 95.8458C248.734 95.0671 248.502 94.4553 248.039 94.0103C247.594 93.5654 246.908 93.3429 245.981 93.3429H243.033V98.3209ZM265.774 89.1436C268.277 89.1436 270.345 89.8017 271.976 91.1181C273.626 92.4344 274.692 94.2143 275.174 96.4576H270.141C269.77 95.5492 269.195 94.8354 268.416 94.3163C267.656 93.7971 266.748 93.5376 265.691 93.5376C264.301 93.5376 263.179 94.0474 262.326 95.0671C261.473 96.0868 261.047 97.4495 261.047 99.1552C261.047 100.861 261.473 102.224 262.326 103.243C263.179 104.244 264.301 104.745 265.691 104.745C266.748 104.745 267.656 104.485 268.416 103.966C269.195 103.447 269.77 102.743 270.141 101.853H275.174C274.692 104.078 273.626 105.857 271.976 107.192C270.345 108.509 268.277 109.167 265.774 109.167C263.865 109.167 262.187 108.75 260.741 107.915C259.295 107.063 258.173 105.876 257.376 104.356C256.597 102.835 256.208 101.102 256.208 99.1552C256.208 97.2085 256.597 95.475 257.376 93.9547C258.173 92.4344 259.295 91.2571 260.741 90.4228C262.187 89.57 263.865 89.1436 265.774 89.1436ZM295.666 89.3382V109H290.882V100.796H283.429V109H278.674V89.3382H283.429V96.9582H290.882V89.3382H295.666Z" fill="white"/>
</svg>
