<svg width="448" height="213" viewBox="0 0 448 213" fill="none" xmlns="http://www.w3.org/2000/svg">
<path d="M12.9141 105.117C12.9141 130.794 17.1432 150.807 25.6016 165.156C34.0599 179.505 48.711 186.68 69.5547 186.68C90.3985 186.68 105.05 179.505 113.508 165.156C122.117 150.807 126.422 130.794 126.422 105.117C126.422 79.7422 122.117 59.8802 113.508 45.5312C105.05 31.1822 90.3985 24.0078 69.5547 24.0078C48.711 24.0078 34.0599 31.1822 25.6016 45.5312C17.1432 59.7291 12.9141 79.5911 12.9141 105.117ZM106.031 105.117C106.031 118.258 105.05 129.284 103.086 138.195C101.273 146.956 97.724 153.979 92.4375 159.266C87.1511 164.552 79.5235 167.195 69.5547 167.195C59.737 167.195 52.1849 164.552 46.8985 159.266C41.612 153.979 37.987 146.956 36.0234 138.195C34.2109 129.284 33.3047 118.258 33.3047 105.117C33.3047 92.1276 34.2109 81.2526 36.0234 72.4921C37.987 63.7317 41.612 56.7838 46.8985 51.6484C52.1849 46.3619 59.737 43.7187 69.5547 43.7187C79.5235 43.7187 87.1511 46.3619 92.4375 51.6484C97.724 56.7838 101.273 63.7317 103.086 72.4921C105.05 81.2526 106.031 92.1276 106.031 105.117ZM206.91 21.9687C217.181 21.9687 226.017 23.7812 233.418 27.4062C240.819 31.0312 246.407 36.0156 250.183 42.3593C253.96 48.7031 255.848 55.8776 255.848 63.8828C255.848 73.8515 252.902 82.2343 247.012 89.0312C241.272 95.8281 232.814 99.9062 221.637 101.266V102.625C233.267 105.646 242.329 110.328 248.824 116.672C255.47 123.016 258.793 131.776 258.793 142.953C258.793 156.094 254.413 166.818 245.652 175.125C236.892 183.432 224.28 187.586 207.816 187.586C191.353 187.586 177.986 183.357 167.715 174.898C157.595 166.289 151.629 153.753 149.816 137.289H170.207C171.566 147.258 175.342 155.187 181.535 161.078C187.879 166.969 196.413 169.914 207.137 169.914C217.256 169.914 225.035 167.346 230.473 162.211C235.91 156.924 238.629 150.128 238.629 141.82C238.629 131.852 234.702 124.299 226.848 119.164C219.144 113.878 208.118 111.234 193.769 111.234H188.332V94.0156H193.769C221.561 94.0156 235.457 84.7265 235.457 66.1484C235.457 57.9921 232.889 51.4974 227.754 46.664C222.618 41.8307 215.519 39.414 206.457 39.414C197.394 39.414 189.767 42.0572 183.574 47.3437C177.381 52.4791 173.756 60.1067 172.699 70.2265H152.535C153.592 55.1224 158.803 43.3411 168.168 34.8828C177.683 26.2734 190.598 21.9687 206.91 21.9687Z" fill="#A6544A"/>
<path d="M160.439 114.877C161.625 115.155 162.562 115.73 163.248 116.601C163.952 117.473 164.304 118.483 164.304 119.633C164.304 121.32 163.739 122.636 162.608 123.582C161.496 124.527 159.892 125 157.797 125H148.647V105.338H157.574C159.577 105.338 161.125 105.774 162.219 106.645C163.313 107.517 163.86 108.759 163.86 110.372C163.86 111.558 163.544 112.55 162.914 113.348C162.284 114.126 161.459 114.636 160.439 114.877ZM153.403 113.375H156.518C158.168 113.375 158.993 112.671 158.993 111.262C158.993 109.853 158.149 109.148 156.462 109.148H153.403V113.375ZM156.796 121.134C158.557 121.134 159.438 120.411 159.438 118.965C159.438 118.261 159.206 117.714 158.742 117.324C158.279 116.917 157.621 116.713 156.768 116.713H153.403V121.134H156.796ZM177.746 125L173.491 117.575H172.406V125H167.651V105.338H175.771C177.329 105.338 178.645 105.607 179.72 106.145C180.796 106.682 181.602 107.424 182.14 108.37C182.677 109.297 182.946 110.363 182.946 111.568C182.946 112.995 182.548 114.21 181.75 115.211C180.972 116.212 179.831 116.898 178.33 117.269L183.002 125H177.746ZM172.406 114.321H175.354C176.3 114.321 176.995 114.117 177.44 113.709C177.885 113.283 178.107 112.662 178.107 111.846C178.107 111.067 177.875 110.455 177.412 110.01C176.967 109.565 176.281 109.343 175.354 109.343H172.406V114.321ZM198.346 121.412H190.976L189.752 125H184.747L191.949 105.477H197.428L204.631 125H199.569L198.346 121.412ZM197.122 117.797L194.675 110.567L192.2 117.797H197.122ZM224.778 125H220.023L212.069 112.93V125H207.314V105.338H212.069L220.023 117.519V105.338H224.778V125ZM246.584 115.127C246.584 117.056 246.167 118.771 245.333 120.272C244.517 121.755 243.33 122.914 241.773 123.749C240.234 124.583 238.417 125 236.322 125H228.897V105.338H236.322C238.436 105.338 240.262 105.746 241.801 106.562C243.34 107.378 244.517 108.527 245.333 110.01C246.167 111.494 246.584 113.199 246.584 115.127ZM235.905 120.745C237.759 120.745 239.196 120.254 240.216 119.271C241.254 118.288 241.773 116.907 241.773 115.127C241.773 113.348 241.254 111.966 240.216 110.984C239.196 110.001 237.759 109.51 235.905 109.51H233.653V120.745H235.905ZM254.883 105.338V125H250.127V105.338H254.883ZM276.465 125H271.71L263.756 112.93V125H259V105.338H263.756L271.71 117.519V105.338H276.465V125ZM289.789 105.144C292.255 105.144 294.285 105.746 295.879 106.951C297.474 108.156 298.466 109.788 298.855 111.846H293.821C293.488 111.141 292.978 110.585 292.292 110.177C291.606 109.751 290.781 109.538 289.817 109.538C288.315 109.538 287.11 110.047 286.201 111.067C285.293 112.068 284.839 113.431 284.839 115.155C284.839 117.028 285.311 118.465 286.257 119.466C287.221 120.467 288.584 120.968 290.345 120.968C291.476 120.968 292.468 120.662 293.321 120.05C294.173 119.419 294.776 118.53 295.128 117.38H289.121V113.959H299.105V118.659C298.734 119.809 298.141 120.875 297.325 121.857C296.51 122.84 295.462 123.637 294.183 124.249C292.922 124.861 291.476 125.167 289.844 125.167C287.861 125.167 286.127 124.75 284.644 123.915C283.161 123.063 282.011 121.876 281.195 120.356C280.398 118.835 280 117.102 280 115.155C280 113.209 280.398 111.475 281.195 109.955C282.011 108.434 283.151 107.257 284.616 106.423C286.099 105.57 287.824 105.144 289.789 105.144Z" fill="white"/>
</svg>
