<svg width="448" height="213" viewBox="0 0 448 213" fill="none" xmlns="http://www.w3.org/2000/svg">
<path d="M12.9141 105.117C12.9141 130.794 17.1432 150.807 25.6016 165.156C34.0599 179.505 48.711 186.68 69.5547 186.68C90.3985 186.68 105.05 179.505 113.508 165.156C122.117 150.807 126.422 130.794 126.422 105.117C126.422 79.7422 122.117 59.8802 113.508 45.5312C105.05 31.1822 90.3985 24.0078 69.5547 24.0078C48.711 24.0078 34.0599 31.1822 25.6016 45.5312C17.1432 59.7291 12.9141 79.5911 12.9141 105.117ZM106.031 105.117C106.031 118.258 105.05 129.284 103.086 138.195C101.273 146.956 97.724 153.979 92.4375 159.266C87.1511 164.552 79.5235 167.195 69.5547 167.195C59.737 167.195 52.1849 164.552 46.8985 159.266C41.612 153.979 37.987 146.956 36.0234 138.195C34.2109 129.284 33.3047 118.258 33.3047 105.117C33.3047 92.1276 34.2109 81.2526 36.0234 72.4921C37.987 63.7317 41.612 56.7838 46.8985 51.6484C52.1849 46.3619 59.737 43.7187 69.5547 43.7187C79.5235 43.7187 87.1511 46.3619 92.4375 51.6484C97.724 56.7838 101.273 63.7317 103.086 72.4921C105.05 81.2526 106.031 92.1276 106.031 105.117ZM148.683 170.141C174.361 152.922 194.902 135.854 210.308 118.937C225.715 101.87 233.418 86.0104 233.418 71.3593C233.418 62.2968 231.077 55.0468 226.394 49.6093C221.863 44.0208 214.462 41.2265 204.191 41.2265C193.618 41.2265 185.613 44.6249 180.176 51.4218C174.738 58.0677 171.717 67.2812 171.113 79.0625H150.723C151.78 61.2395 157.293 47.5703 167.262 38.0546C177.23 28.388 190.069 23.5546 205.777 23.5546C220.73 23.5546 232.587 27.5572 241.348 35.5625C250.108 43.5677 254.488 54.8958 254.488 69.5468C254.488 81.6302 250.561 93.9401 242.707 106.477C235.004 118.862 225.262 130.417 213.48 141.141C201.85 151.714 189.842 160.701 177.457 168.102H258.566V185.094H148.683V170.141Z" fill="#A6544A"/>
<path d="M127.251 84.3382V104H122.496V84.3382H127.251ZM148.833 104H144.078L136.124 91.9304V104H131.369V84.3382H136.124L144.078 96.5191V84.3382H148.833V104ZM165.772 84.3382V88.1204H157.708V92.431H163.937V96.0463H157.708V104H152.952V84.3382H165.772ZM178.393 84.0323C180.247 84.0323 181.925 84.468 183.427 85.3394C184.947 86.1922 186.143 87.3881 187.015 88.9269C187.886 90.4472 188.322 92.1714 188.322 94.0996C188.322 96.0278 187.877 97.7613 186.987 99.3001C186.115 100.839 184.92 102.044 183.399 102.915C181.898 103.768 180.229 104.195 178.393 104.195C176.558 104.195 174.88 103.768 173.36 102.915C171.858 102.044 170.662 100.839 169.772 99.3001C168.901 97.7613 168.465 96.0278 168.465 94.0996C168.465 92.1714 168.901 90.4472 169.772 88.9269C170.662 87.3881 171.858 86.1922 173.36 85.3394C174.88 84.468 176.558 84.0323 178.393 84.0323ZM178.393 88.4541C176.836 88.4541 175.594 88.964 174.667 89.9837C173.758 90.9849 173.304 92.3568 173.304 94.0996C173.304 95.8238 173.758 97.1958 174.667 98.2155C175.594 99.2352 176.836 99.7451 178.393 99.7451C179.932 99.7451 181.165 99.2352 182.092 98.2155C183.019 97.1958 183.483 95.8238 183.483 94.0996C183.483 92.3754 183.019 91.0034 182.092 89.9837C181.184 88.964 179.951 88.4541 178.393 88.4541ZM201.923 104L197.668 96.5747H196.583V104H191.827V84.3382H199.948C201.505 84.3382 202.822 84.6071 203.897 85.1447C204.972 85.6824 205.779 86.424 206.317 87.3695C206.854 88.2965 207.123 89.3626 207.123 90.5677C207.123 91.9953 206.724 93.2097 205.927 94.2108C205.149 95.212 204.008 95.898 202.507 96.2688L207.179 104H201.923ZM196.583 93.3209H199.531C200.476 93.3209 201.172 93.117 201.617 92.7091C202.062 92.2827 202.284 91.6616 202.284 90.8458C202.284 90.0671 202.052 89.4553 201.589 89.0103C201.144 88.5654 200.458 88.3429 199.531 88.3429H196.583V93.3209ZM232.451 84.4773V104H227.695V91.7914L223.468 104H219.352L215.097 91.7635V104H210.342V84.4773H216.154L221.466 98.0764L226.666 84.4773H232.451ZM248.75 100.412H241.38L240.157 104H235.151L242.354 84.4773H247.832L255.035 104H249.974L248.75 100.412ZM247.526 96.7972L245.079 89.5665L242.604 96.7972H247.526ZM271.845 84.3382V88.1204H266.506V104H261.723V88.1204H256.439V84.3382H271.845ZM279.44 84.3382V104H274.684V84.3382H279.44ZM292.902 84.0323C294.756 84.0323 296.434 84.468 297.935 85.3394C299.456 86.1922 300.651 87.3881 301.523 88.9269C302.394 90.4472 302.83 92.1714 302.83 94.0996C302.83 96.0278 302.385 97.7613 301.495 99.3001C300.624 100.839 299.428 102.044 297.907 102.915C296.406 103.768 294.737 104.195 292.902 104.195C291.066 104.195 289.388 103.768 287.868 102.915C286.366 102.044 285.17 100.839 284.281 99.3001C283.409 97.7613 282.973 96.0278 282.973 94.0996C282.973 92.1714 283.409 90.4472 284.281 88.9269C285.17 87.3881 286.366 86.1922 287.868 85.3394C289.388 84.468 291.066 84.0323 292.902 84.0323ZM292.902 88.4541C291.344 88.4541 290.102 88.964 289.175 89.9837C288.267 90.9849 287.812 92.3568 287.812 94.0996C287.812 95.8238 288.267 97.1958 289.175 98.2155C290.102 99.2352 291.344 99.7451 292.902 99.7451C294.44 99.7451 295.673 99.2352 296.6 98.2155C297.527 97.1958 297.991 95.8238 297.991 94.0996C297.991 92.3754 297.527 91.0034 296.6 89.9837C295.692 88.964 294.459 88.4541 292.902 88.4541ZM323.8 104H319.045L311.091 91.9304V104H306.336V84.3382H311.091L319.045 96.5191V84.3382H323.8V104ZM129 142.412H121.631L120.407 146H115.401L122.604 126.477H128.083L135.285 146H130.224L129 142.412ZM127.777 138.797L125.329 131.567L122.854 138.797H127.777ZM148.063 146L143.808 138.575H142.724V146H137.968V126.338H146.089C147.646 126.338 148.962 126.607 150.038 127.145C151.113 127.682 151.92 128.424 152.457 129.37C152.995 130.297 153.264 131.363 153.264 132.568C153.264 133.995 152.865 135.21 152.068 136.211C151.289 137.212 150.149 137.898 148.647 138.269L153.319 146H148.063ZM142.724 135.321H145.672C146.617 135.321 147.312 135.117 147.757 134.709C148.202 134.283 148.425 133.662 148.425 132.846C148.425 132.067 148.193 131.455 147.73 131.01C147.285 130.565 146.599 130.343 145.672 130.343H142.724V135.321ZM165.465 126.144C167.968 126.144 170.035 126.802 171.667 128.118C173.317 129.434 174.383 131.214 174.865 133.458H169.831C169.461 132.549 168.886 131.835 168.107 131.316C167.347 130.797 166.439 130.538 165.382 130.538C163.991 130.538 162.87 131.047 162.017 132.067C161.164 133.087 160.738 134.45 160.738 136.155C160.738 137.861 161.164 139.224 162.017 140.243C162.87 141.244 163.991 141.745 165.382 141.745C166.439 141.745 167.347 141.485 168.107 140.966C168.886 140.447 169.461 139.743 169.831 138.853H174.865C174.383 141.078 173.317 142.857 171.667 144.192C170.035 145.509 167.968 146.167 165.465 146.167C163.556 146.167 161.878 145.75 160.432 144.915C158.985 144.063 157.864 142.876 157.067 141.356C156.288 139.835 155.899 138.102 155.899 136.155C155.899 134.209 156.288 132.475 157.067 130.955C157.864 129.434 158.985 128.257 160.432 127.423C161.878 126.57 163.556 126.144 165.465 126.144ZM195.357 126.338V146H190.573V137.796H183.12V146H178.365V126.338H183.12V133.958H190.573V126.338H195.357ZM204.215 126.338V146H199.459V126.338H204.215ZM222.46 126.338V130.12H217.12V146H212.337V130.12H207.053V126.338H222.46ZM230.054 130.12V134.236H236.701V137.824H230.054V142.19H237.535V146H225.299V126.338H237.535V130.12H230.054ZM250.053 126.144C252.555 126.144 254.623 126.802 256.254 128.118C257.904 129.434 258.97 131.214 259.452 133.458H254.419C254.048 132.549 253.473 131.835 252.695 131.316C251.934 130.797 251.026 130.538 249.969 130.538C248.579 130.538 247.457 131.047 246.604 132.067C245.751 133.087 245.325 134.45 245.325 136.155C245.325 137.861 245.751 139.224 246.604 140.243C247.457 141.244 248.579 141.745 249.969 141.745C251.026 141.745 251.934 141.485 252.695 140.966C253.473 140.447 254.048 139.743 254.419 138.853H259.452C258.97 141.078 257.904 142.857 256.254 144.192C254.623 145.509 252.555 146.167 250.053 146.167C248.143 146.167 246.465 145.75 245.019 144.915C243.573 144.063 242.451 142.876 241.654 141.356C240.875 139.835 240.486 138.102 240.486 136.155C240.486 134.209 240.875 132.475 241.654 130.955C242.451 129.434 243.573 128.257 245.019 127.423C246.465 126.57 248.143 126.144 250.053 126.144ZM277.079 126.338V130.12H271.74V146H266.957V130.12H261.673V126.338H277.079ZM284.535 126.338V137.685C284.535 138.983 284.822 139.974 285.397 140.66C285.99 141.346 286.843 141.689 287.955 141.689C289.068 141.689 289.911 141.346 290.486 140.66C291.079 139.974 291.376 138.983 291.376 137.685V126.338H296.132V137.685C296.132 139.539 295.77 141.105 295.047 142.385C294.324 143.645 293.332 144.6 292.071 145.249C290.829 145.879 289.42 146.195 287.844 146.195C286.268 146.195 284.878 145.879 283.673 145.249C282.467 144.619 281.522 143.664 280.836 142.385C280.15 141.105 279.807 139.539 279.807 137.685V126.338H284.535ZM310.239 146L305.984 138.575H304.899V146H300.144V126.338H308.264C309.822 126.338 311.138 126.607 312.213 127.145C313.289 127.682 314.095 128.424 314.633 129.37C315.17 130.297 315.439 131.363 315.439 132.568C315.439 133.995 315.041 135.21 314.243 136.211C313.465 137.212 312.324 137.898 310.823 138.269L315.495 146H310.239ZM304.899 135.321H307.847C308.793 135.321 309.488 135.117 309.933 134.709C310.378 134.283 310.6 133.662 310.6 132.846C310.6 132.067 310.368 131.455 309.905 131.01C309.46 130.565 308.774 130.343 307.847 130.343H304.899V135.321ZM323.414 130.12V134.236H330.06V137.824H323.414V142.19H330.894V146H318.658V126.338H330.894V130.12H323.414Z" fill="white"/>
</svg>
