<svg width="22" height="74" viewBox="0 0 22 74" fill="none" xmlns="http://www.w3.org/2000/svg">
<path d="M19.7627 58.1395C19.2842 57.661 18.5664 57.7089 18.0879 58.1395L12.6328 63.9296V50.1483C12.6328 49.5262 12.1064 48.9999 11.4844 48.9999H9.95312C9.2832 48.9999 8.80469 49.5262 8.80469 50.1483V63.9296L3.30176 58.1395C2.82324 57.7089 2.10547 57.661 1.62695 58.1395L0.574219 59.1923C0.143555 59.6229 0.143555 60.3886 0.574219 60.8192L9.90527 70.1024C10.3359 70.5809 11.0537 70.5809 11.5322 70.1024L20.8154 60.8192C21.2461 60.3886 21.2461 59.6708 20.8154 59.1923L19.7627 58.1395Z" fill="white"/>
<path d="M7.188 35.3437C7.188 34.4384 7.42133 33.7151 7.888 33.1737C8.34533 32.6231 8.96133 32.2871 9.736 32.1657L9.736 33.6777C9.316 33.7431 8.98 33.9251 8.728 34.2237C8.46667 34.5131 8.336 34.9004 8.336 35.3857C8.336 35.7871 8.434 36.0997 8.63 36.3237C8.81667 36.5384 9.07333 36.6457 9.4 36.6457C9.64267 36.6457 9.83867 36.5664 9.988 36.4077C10.1373 36.2491 10.254 36.0531 10.338 35.8197C10.422 35.5771 10.5153 35.2364 10.618 34.7977C10.7487 34.2191 10.884 33.7524 11.024 33.3977C11.164 33.0337 11.388 32.7257 11.696 32.4737C11.9947 32.2124 12.4053 32.0817 12.928 32.0817C13.572 32.0817 14.0947 32.3291 14.496 32.8237C14.8973 33.3091 15.098 33.9671 15.098 34.7977C15.098 35.7591 14.874 36.5384 14.426 37.1357C13.978 37.7237 13.3527 38.0784 12.55 38.1997L12.55 36.6457C12.97 36.5991 13.3107 36.4124 13.572 36.0857C13.8333 35.7591 13.964 35.3297 13.964 34.7977C13.964 34.4151 13.866 34.1164 13.67 33.9017C13.4647 33.6777 13.208 33.5657 12.9 33.5657C12.6293 33.5657 12.4147 33.6497 12.256 33.8177C12.0973 33.9857 11.976 34.1957 11.892 34.4477C11.7987 34.6997 11.7053 35.0451 11.612 35.4837C11.4813 36.0437 11.3507 36.5011 11.22 36.8557C11.0893 37.2011 10.8793 37.4997 10.59 37.7517C10.2913 37.9944 9.89 38.1157 9.386 38.1157C8.73267 38.1157 8.20533 37.8731 7.804 37.3877C7.39333 36.8931 7.188 36.2117 7.188 35.3437ZM7.188 27.0513C7.188 26.0526 7.454 25.2266 7.986 24.5733C8.50867 23.9199 9.22267 23.5139 10.128 23.3553L10.128 25.0493C9.64267 25.1426 9.26467 25.3713 8.994 25.7353C8.714 26.0899 8.574 26.5379 8.574 27.0793C8.574 27.6953 8.79333 28.2086 9.232 28.6193C9.66133 29.0299 10.296 29.2353 11.136 29.2353C11.976 29.2353 12.6153 29.0299 13.054 28.6193C13.4927 28.2086 13.712 27.6953 13.712 27.0793C13.712 26.5379 13.572 26.0899 13.292 25.7353C13.012 25.3713 12.6293 25.1426 12.144 25.0493L12.144 23.3553C13.0493 23.5139 13.768 23.9199 14.3 24.5733C14.832 25.2266 15.098 26.0526 15.098 27.0513C15.098 27.7979 14.9393 28.4606 14.622 29.0393C14.3047 29.6086 13.8473 30.0566 13.25 30.3833C12.6527 30.7099 11.948 30.8733 11.136 30.8733C10.3333 30.8733 9.63333 30.7099 9.036 30.3833C8.43867 30.0566 7.98133 29.6086 7.664 29.0393C7.34667 28.4606 7.188 27.7979 7.188 27.0513ZM8.798 20.2173C8.294 19.956 7.89733 19.5826 7.608 19.0973C7.30933 18.612 7.16 18.052 7.16 17.4173L8.896 17.4173L8.896 17.8933C8.896 18.5933 9.06867 19.158 9.414 19.5873C9.75 20.0073 10.31 20.2173 11.094 20.2173L15 20.2173L15 21.8133L7.286 21.8133L7.286 20.2173L8.798 20.2173ZM7.188 12.6935C7.188 11.9468 7.34667 11.2748 7.664 10.6775C7.98133 10.0802 8.43867 9.6135 9.036 9.2775C9.63333 8.9415 10.3333 8.7735 11.136 8.7735C11.948 8.7735 12.6527 8.9415 13.25 9.2775C13.8473 9.6135 14.3047 10.0802 14.622 10.6775C14.9393 11.2748 15.098 11.9468 15.098 12.6935C15.098 13.4402 14.9393 14.1122 14.622 14.7095C14.3047 15.2975 13.8473 15.7642 13.25 16.1095C12.6433 16.4455 11.9387 16.6135 11.136 16.6135C10.3333 16.6135 9.63333 16.4455 9.036 16.1095C8.43867 15.7642 7.98133 15.2975 7.664 14.7095C7.34667 14.1122 7.188 13.4402 7.188 12.6935ZM8.574 12.6935C8.574 13.1042 8.66733 13.4822 8.854 13.8275C9.04067 14.1728 9.33 14.4528 9.722 14.6675C10.1047 14.8728 10.576 14.9755 11.136 14.9755C11.7053 14.9755 12.1813 14.8728 12.564 14.6675C12.9467 14.4528 13.2313 14.1728 13.418 13.8275C13.6047 13.4822 13.698 13.1042 13.698 12.6935C13.698 12.2828 13.6047 11.9048 13.418 11.5595C13.2313 11.2142 12.9467 10.9388 12.564 10.7335C12.1813 10.5188 11.7053 10.4115 11.136 10.4115C10.576 10.4115 10.1047 10.5188 9.722 10.7335C9.33 10.9388 9.04067 11.2142 8.854 11.5595C8.66733 11.9048 8.574 12.2828 8.574 12.6935ZM4.64 5.64308L15 5.64308L15 7.23908L4.64 7.23908L4.64 5.64308ZM4.64 2.11574L15 2.11574L15 3.71174L4.64 3.71174L4.64 2.11574Z" fill="white"/>
</svg>
