<svg width="393" height="92" viewBox="0 0 393 92" fill="none" xmlns="http://www.w3.org/2000/svg">
<line x1="-1.31134e-07" y1="90.5" x2="393" y2="90.5" stroke="#284659" stroke-width="3"/>
<path d="M48.96 37.064L40.848 71H30.672L25.248 48.296L19.776 71H9.6L1.488 37.064H10.416L14.784 61.64L20.736 37.064H29.712L35.664 61.64L40.08 37.064H48.96ZM75.1575 36.536C78.3575 36.536 81.2535 37.288 83.8455 38.792C86.4695 40.264 88.5335 42.328 90.0375 44.984C91.5415 47.608 92.2935 50.584 92.2935 53.912C92.2935 57.24 91.5255 60.232 89.9895 62.888C88.4855 65.544 86.4215 67.624 83.7975 69.128C81.2055 70.6 78.3255 71.336 75.1575 71.336C71.9895 71.336 69.0935 70.6 66.4695 69.128C63.8775 67.624 61.8135 65.544 60.2775 62.888C58.7735 60.232 58.0215 57.24 58.0215 53.912C58.0215 50.584 58.7735 47.608 60.2775 44.984C61.8135 42.328 63.8775 40.264 66.4695 38.792C69.0935 37.288 71.9895 36.536 75.1575 36.536ZM75.1575 44.168C72.4695 44.168 70.3255 45.048 68.7255 46.808C67.1575 48.536 66.3735 50.904 66.3735 53.912C66.3735 56.888 67.1575 59.256 68.7255 61.016C70.3255 62.776 72.4695 63.656 75.1575 63.656C77.8135 63.656 79.9415 62.776 81.5415 61.016C83.1415 59.256 83.9415 56.888 83.9415 53.912C83.9415 50.936 83.1415 48.568 81.5415 46.808C79.9735 45.048 77.8455 44.168 75.1575 44.168ZM120.089 71L112.745 58.184H110.873V71H102.665V37.064H116.681C119.369 37.064 121.641 37.528 123.497 38.456C125.353 39.384 126.745 40.664 127.673 42.296C128.601 43.896 129.065 45.736 129.065 47.816C129.065 50.28 128.377 52.376 127.001 54.104C125.657 55.832 123.689 57.016 121.097 57.656L129.161 71H120.089ZM110.873 52.568H115.961C117.593 52.568 118.793 52.216 119.561 51.512C120.329 50.776 120.713 49.704 120.713 48.296C120.713 46.952 120.313 45.896 119.513 45.128C118.745 44.36 117.561 43.976 115.961 43.976H110.873V52.568ZM154.924 53.672L168.604 71H158.668L147.148 55.784V71H138.94V37.064H147.148V51.992L158.764 37.064H168.604L154.924 53.672Z" fill="black"/>
<path d="M181.297 71.48C179.921 71.48 178.881 71.08 178.177 70.28C177.505 69.448 177.169 68.456 177.169 67.304C177.169 66.12 177.521 65.128 178.225 64.328C178.961 63.528 179.985 63.128 181.297 63.128C182.609 63.128 183.649 63.464 184.417 64.136C185.185 64.808 185.569 65.816 185.569 67.16C185.569 68.504 185.201 69.56 184.465 70.328C183.761 71.096 182.705 71.48 181.297 71.48Z" fill="#284659"/>
<path d="M0.162162 7.72973H6.78378V27.5135H8.2973V28H0.27027V27.5135H1.75676V8.21621H0.162162V7.72973ZM18.5515 21.6486H19.3353V19.5676C19.3353 17.8559 19.2362 16.7117 19.038 16.1351C18.8578 15.5405 18.4975 15.2432 17.9569 15.2432C17.6326 15.2432 17.3353 15.3333 17.065 15.5135C16.8128 15.6757 16.6867 15.9099 16.6867 16.2162C16.6867 16.5045 16.7407 16.8018 16.8488 17.1081H17.5245C17.6686 17.4865 17.7407 17.9459 17.7407 18.4865C17.7407 19.009 17.5155 19.4685 17.065 19.8649C16.6146 20.2432 16.047 20.4324 15.3623 20.4324C13.8128 20.4324 13.038 19.6847 13.038 18.1892C13.038 15.973 14.9209 14.8649 18.6867 14.8649C20.8308 14.8649 22.3083 15.2342 23.1191 15.973C23.9479 16.6937 24.3623 18.027 24.3623 19.973V25.4595C24.3623 26.3964 24.6236 26.8649 25.1461 26.8649C25.7587 26.8649 26.1191 25.9369 26.2272 24.0811L26.6326 24.1081C26.5605 25.6937 26.2632 26.7838 25.7407 27.3784C25.2182 27.973 24.3623 28.2703 23.1731 28.2703C21.011 28.2703 19.7677 27.6036 19.4434 26.2703C19.2092 26.955 18.8578 27.4595 18.3894 27.7838C17.9209 28.1081 17.2362 28.2703 16.3353 28.2703C13.6686 28.2703 12.3353 27.1802 12.3353 25C12.3353 23.7207 12.8398 22.8468 13.8488 22.3784C14.8758 21.8919 16.4434 21.6486 18.5515 21.6486ZM17.4704 24.973C17.4704 25.9099 17.5155 26.5135 17.6056 26.7838C17.7137 27.0541 17.9029 27.1892 18.1731 27.1892C18.4614 27.1892 18.7227 26.964 18.9569 26.5135C19.2092 26.045 19.3353 25.4054 19.3353 24.5946V22.0811H19.1461C18.029 22.0811 17.4704 22.9009 17.4704 24.5405V24.973ZM31.0969 24.1351V15.6216H29.6104V15.1351H31.0969V11.6486L36.1239 10.4054V15.1351H39.6375V15.6216H36.1239V24.7297C36.1239 25.5766 36.205 26.1982 36.3672 26.5946C36.5474 26.991 36.9077 27.1892 37.4483 27.1892C37.9888 27.1892 38.4573 26.9189 38.8537 26.3784C39.2681 25.8378 39.5384 25.0991 39.6645 24.1622L40.1239 24.2162C39.9798 25.4595 39.5834 26.4505 38.9348 27.1892C38.2861 27.9099 37.214 28.2703 35.7185 28.2703C34.223 28.2703 33.0789 27.973 32.2861 27.3784C31.4933 26.7838 31.0969 25.7027 31.0969 24.1351ZM50.7335 28.2703C48.4092 28.2703 46.6615 27.6757 45.4903 26.4865C44.3371 25.2793 43.7606 23.6126 43.7606 21.4865C43.7606 19.3423 44.4092 17.7027 45.7065 16.5676C47.0218 15.4324 48.6885 14.8649 50.7065 14.8649C54.7966 14.8649 56.7606 16.9189 56.5984 21.027H48.9768V22.0811C48.9768 23.8468 49.202 25.1802 49.6524 26.0811C50.1029 26.982 50.8867 27.4324 52.0038 27.4324C54.0939 27.4324 55.4633 26.3153 56.1119 24.0811L56.5984 24.1622C56.2561 25.4595 55.6344 26.4685 54.7335 27.1892C53.8506 27.9099 52.5173 28.2703 50.7335 28.2703ZM49.0038 20.4865H51.7876V19.1622C51.7876 17.7027 51.6975 16.7117 51.5173 16.1892C51.3552 15.6486 51.0128 15.3784 50.4903 15.3784C49.9858 15.3784 49.6074 15.6667 49.3552 16.2432C49.1209 16.8018 49.0038 17.7748 49.0038 19.1622V20.4865ZM61.1622 28.2703V23.4324H61.4865C61.955 25 62.5856 26.0991 63.3784 26.7297C64.1712 27.3604 65.1622 27.6757 66.3514 27.6757C68.1892 27.6757 69.1081 27.0901 69.1081 25.9189C69.1081 25.4144 68.8829 25.036 68.4324 24.7838C67.7297 24.3874 66.8288 24.0811 65.7297 23.8649C64.5045 23.5405 63.4775 23.1081 62.6486 22.5676C61.6577 21.9189 61.1622 20.8919 61.1622 19.4865C61.1622 18.0811 61.5946 16.964 62.4595 16.1351C63.3243 15.2883 64.4775 14.8649 65.9189 14.8649C66.8018 14.8649 67.7117 15.0721 68.6486 15.4865C68.991 15.6306 69.2523 15.7027 69.4324 15.7027C69.6126 15.7027 69.7658 15.6396 69.8919 15.5135C70.018 15.3874 70.1712 15.1532 70.3514 14.8108H70.6486V18.9459H70.3243C69.4054 16.6036 67.982 15.4324 66.0541 15.4324C65.2072 15.4324 64.5766 15.5856 64.1622 15.8919C63.7477 16.1802 63.5405 16.5495 63.5405 17C63.5405 17.2703 63.6036 17.4865 63.7297 17.6486C63.8559 17.7928 63.955 17.9009 64.027 17.973C64.0991 18.045 64.2162 18.1261 64.3784 18.2162C64.5405 18.2883 64.6757 18.3514 64.7838 18.4054C64.8919 18.4414 65.0541 18.4955 65.2703 18.5676C65.5045 18.6396 65.6757 18.6847 65.7838 18.7027C67.009 19.009 67.8919 19.2793 68.4324 19.5135C68.973 19.7297 69.4865 20 69.973 20.3243C70.964 21.009 71.4595 22.1171 71.4595 23.6486C71.4595 25.1622 71.009 26.3153 70.1081 27.1081C69.2072 27.8829 67.973 28.2703 66.4054 28.2703C65.2883 28.2703 64.2072 28.009 63.1622 27.4865C62.9459 27.3423 62.7748 27.2703 62.6486 27.2703C62.2523 27.2703 61.8649 27.6036 61.4865 28.2703H61.1622ZM76.59 24.1351V15.6216H75.1035V15.1351H76.59V11.6486L81.617 10.4054V15.1351H85.1305V15.6216H81.617V24.7297C81.617 25.5766 81.6981 26.1982 81.8602 26.5946C82.0404 26.991 82.4008 27.1892 82.9413 27.1892C83.4818 27.1892 83.9503 26.9189 84.3467 26.3784C84.7611 25.8378 85.0314 25.0991 85.1575 24.1622L85.617 24.2162C85.4728 25.4595 85.0764 26.4505 84.4278 27.1892C83.7791 27.9099 82.7071 28.2703 81.2116 28.2703C79.7161 28.2703 78.5719 27.973 77.7791 27.3784C76.9863 26.7838 76.59 25.7027 76.59 24.1351Z" fill="black"/>
</svg>
